<?xml version="1.0" encoding="UTF-8" standalone="no" ?>
<!DOCTYPE svg PUBLIC "-//W3C//DTD SVG 1.1//EN" "http://www.w3.org/Graphics/SVG/1.1/DTD/svg11.dtd">
<svg xmlns="http://www.w3.org/2000/svg" xmlns:xlink="http://www.w3.org/1999/xlink" version="1.1" width="400" height="400" viewBox="0 0 400 400" xml:space="preserve">
<desc>Created with Fabric.js 3.6.2</desc>
<defs>
</defs>
<g transform="matrix(4 0 0 4 235.42 159.12)" id="Layer_1"  >
<path style="stroke: none; stroke-width: 1; stroke-dasharray: none; stroke-linecap: butt; stroke-dashoffset: 0; stroke-linejoin: miter; stroke-miterlimit: 4; fill: rgb(240,196,219); fill-rule: nonzero; opacity: 1;"  transform=" translate(-33.86, -14.78)" d="M 18.84 7.44 c 0 11.6 9.4 21 21 21 c 3.24 0 6.29 -0.75 9.03 -2.06 V 1.12 H 19.81 C 19.18 3.12 18.84 5.24 18.84 7.44 z" stroke-linecap="round" />
</g>
<g transform="matrix(4 0 0 4 133.36 281.36)" id="Layer_1"  >
<rect style="stroke: none; stroke-width: 1; stroke-dasharray: none; stroke-linecap: butt; stroke-dashoffset: 0; stroke-linejoin: miter; stroke-miterlimit: 4; fill: rgb(253,228,161); fill-rule: nonzero; opacity: 1;"  x="-2.83" y="-2.79" rx="0" ry="0" width="5.66" height="5.58" />
</g>
<g transform="matrix(4 0 0 4 174.24 270.56)" id="Layer_1"  >
<rect style="stroke: none; stroke-width: 1; stroke-dasharray: none; stroke-linecap: butt; stroke-dashoffset: 0; stroke-linejoin: miter; stroke-miterlimit: 4; fill: rgb(255,157,156); fill-rule: nonzero; opacity: 1;"  x="-2.83" y="-5.48" rx="0" ry="0" width="5.66" height="10.96" />
</g>
<g transform="matrix(4 0 0 4 215.16 250.92)" id="Layer_1"  >
<rect style="stroke: none; stroke-width: 1; stroke-dasharray: none; stroke-linecap: butt; stroke-dashoffset: 0; stroke-linejoin: miter; stroke-miterlimit: 4; fill: rgb(155,234,249); fill-rule: nonzero; opacity: 1;"  x="-2.83" y="-10.4" rx="0" ry="0" width="5.66" height="20.8" />
</g>
<g transform="matrix(4 0 0 4 256.04 234.68)" id="Layer_1"  >
<rect style="stroke: none; stroke-width: 1; stroke-dasharray: none; stroke-linecap: butt; stroke-dashoffset: 0; stroke-linejoin: miter; stroke-miterlimit: 4; fill: rgb(233,244,188); fill-rule: nonzero; opacity: 1;"  x="-2.83" y="-14.45" rx="0" ry="0" width="5.66" height="28.9" />
</g>
<g transform="matrix(4 0 0 4 133.36 217.14)" id="Layer_1"  >
<rect style="stroke: none; stroke-width: 1; stroke-dasharray: none; stroke-linecap: butt; stroke-dashoffset: 0; stroke-linejoin: miter; stroke-miterlimit: 4; fill: rgb(253,228,161); fill-rule: nonzero; opacity: 1;"  x="-2.59" y="-4.135" rx="0" ry="0" width="5.18" height="8.27" />
</g>
<g transform="matrix(4 0 0 4 174.24 198.1)" id="Layer_1"  >
<rect style="stroke: none; stroke-width: 1; stroke-dasharray: none; stroke-linecap: butt; stroke-dashoffset: 0; stroke-linejoin: miter; stroke-miterlimit: 4; fill: rgb(255,157,156); fill-rule: nonzero; opacity: 1;"  x="-2.59" y="-4.135" rx="0" ry="0" width="5.18" height="8.27" />
</g>
<g transform="matrix(4 0 0 4 214.2 166.46)" id="Layer_1"  >
<rect style="stroke: none; stroke-width: 1; stroke-dasharray: none; stroke-linecap: butt; stroke-dashoffset: 0; stroke-linejoin: miter; stroke-miterlimit: 4; fill: rgb(155,234,249); fill-rule: nonzero; opacity: 1;"  x="-2.59" y="-4.135" rx="0" ry="0" width="5.18" height="8.27" />
</g>
<g transform="matrix(4 0 0 4 256.04 132.7)" id="Layer_1"  >
<rect style="stroke: none; stroke-width: 1; stroke-dasharray: none; stroke-linecap: butt; stroke-dashoffset: 0; stroke-linejoin: miter; stroke-miterlimit: 4; fill: rgb(233,244,188); fill-rule: nonzero; opacity: 1;"  x="-2.59" y="-4.135" rx="0" ry="0" width="5.18" height="8.27" />
</g>
<g transform="matrix(4 0 0 4 199.52 200.52)" id="Layer_1"  >
<path style="stroke: none; stroke-width: 1; stroke-dasharray: none; stroke-linecap: butt; stroke-dashoffset: 0; stroke-linejoin: miter; stroke-miterlimit: 4; fill: rgb(80,80,80); fill-rule: nonzero; opacity: 1;"  transform=" translate(-24.88, -25.13)" d="M 47.88 47.38 h -5.22 V 19.22 c 0 -0.41 -0.34 -0.75 -0.75 -0.75 h -5.66 c -0.41 0 -0.75 0.34 -0.75 0.75 v 28.15 h -3.06 V 27.33 c 0 -0.41 -0.34 -0.75 -0.75 -0.75 h -5.66 c -0.41 0 -0.75 0.34 -0.75 0.75 v 20.05 h -3.06 V 37.16 c 0 -0.41 -0.34 -0.75 -0.75 -0.75 h -5.66 c -0.41 0 -0.75 0.34 -0.75 0.75 v 10.21 h -3.06 v -4.83 c 0 -0.41 -0.34 -0.75 -0.75 -0.75 H 5.58 c -0.41 0 -0.75 0.34 -0.75 0.75 v 4.83 H 2.63 V 2.13 c 0 -0.41 -0.34 -0.75 -0.75 -0.75 S 1.13 1.71 1.13 2.13 v 46 c 0 0.41 0.34 0.75 0.75 0.75 h 46 c 0.41 0 0.75 -0.34 0.75 -0.75 S 48.29 47.38 47.88 47.38 z M 6.33 47.38 V 43.3 h 4.16 v 4.08 H 6.33 z M 16.56 47.38 v -9.46 h 4.16 v 9.46 H 16.56 z M 26.78 47.38 v -19.3 h 4.16 v 19.3 H 26.78 z M 37 47.38 v -27.4 h 4.16 v 27.4 H 37 z" stroke-linecap="round" />
</g>
<g transform="matrix(4 0 0 4 133.64 217.18)" id="Layer_1"  >
<path style="stroke: none; stroke-width: 1; stroke-dasharray: none; stroke-linecap: butt; stroke-dashoffset: 0; stroke-linejoin: miter; stroke-miterlimit: 4; fill: rgb(80,80,80); fill-rule: nonzero; opacity: 1;"  transform=" translate(-8.41, -29.3)" d="M 5.82 34.18 h 1.84 v 1.17 c 0 0.41 0.34 0.75 0.75 0.75 s 0.75 -0.34 0.75 -0.75 v -1.17 H 11 c 0.41 0 0.75 -0.34 0.75 -0.75 v -8.27 c 0 -0.41 -0.34 -0.75 -0.75 -0.75 H 9.16 v -1.17 c 0 -0.41 -0.34 -0.75 -0.75 -0.75 s -0.75 0.34 -0.75 0.75 v 1.17 H 5.82 c -0.41 0 -0.75 0.34 -0.75 0.75 v 8.27 C 5.07 33.84 5.41 34.18 5.82 34.18 z M 6.57 25.9 h 3.68 v 6.77 H 6.57 V 25.9 z" stroke-linecap="round" />
</g>
<g transform="matrix(4 0 0 4 174.56 198.14)" id="Layer_1"  >
<path style="stroke: none; stroke-width: 1; stroke-dasharray: none; stroke-linecap: butt; stroke-dashoffset: 0; stroke-linejoin: miter; stroke-miterlimit: 4; fill: rgb(80,80,80); fill-rule: nonzero; opacity: 1;"  transform=" translate(-18.64, -24.54)" d="M 16.05 29.42 h 1.84 v 1.17 c 0 0.41 0.34 0.75 0.75 0.75 s 0.75 -0.34 0.75 -0.75 v -1.17 h 1.84 c 0.41 0 0.75 -0.34 0.75 -0.75 V 20.4 c 0 -0.41 -0.34 -0.75 -0.75 -0.75 h -1.84 v -1.17 c 0 -0.41 -0.34 -0.75 -0.75 -0.75 s -0.75 0.34 -0.75 0.75 v 1.17 h -1.84 c -0.41 0 -0.75 0.34 -0.75 0.75 v 8.27 C 15.3 29.08 15.63 29.42 16.05 29.42 z M 16.8 21.15 h 3.68 v 6.77 H 16.8 V 21.15 z" stroke-linecap="round" />
</g>
<g transform="matrix(4 0 0 4 214.48 166.46)" id="Layer_1"  >
<path style="stroke: none; stroke-width: 1; stroke-dasharray: none; stroke-linecap: butt; stroke-dashoffset: 0; stroke-linejoin: miter; stroke-miterlimit: 4; fill: rgb(80,80,80); fill-rule: nonzero; opacity: 1;"  transform=" translate(-28.62, -16.62)" d="M 26.03 21.5 h 1.84 v 1.17 c 0 0.41 0.34 0.75 0.75 0.75 s 0.75 -0.34 0.75 -0.75 V 21.5 h 1.84 c 0.41 0 0.75 -0.34 0.75 -0.75 v -8.27 c 0 -0.41 -0.34 -0.75 -0.75 -0.75 h -1.84 v -1.17 c 0 -0.41 -0.34 -0.75 -0.75 -0.75 s -0.75 0.34 -0.75 0.75 v 1.17 h -1.84 c -0.41 0 -0.75 0.34 -0.75 0.75 v 8.27 C 25.28 21.17 25.61 21.5 26.03 21.5 z M 26.78 13.23 h 3.68 V 20 h -3.68 V 13.23 z" stroke-linecap="round" />
</g>
<g transform="matrix(4 0 0 4 256.32 132.74)" id="Layer_1"  >
<path style="stroke: none; stroke-width: 1; stroke-dasharray: none; stroke-linecap: butt; stroke-dashoffset: 0; stroke-linejoin: miter; stroke-miterlimit: 4; fill: rgb(80,80,80); fill-rule: nonzero; opacity: 1;"  transform=" translate(-39.08, -8.18)" d="M 36.49 13.07 h 1.84 v 1.17 c 0 0.41 0.34 0.75 0.75 0.75 s 0.75 -0.34 0.75 -0.75 v -1.17 h 1.84 c 0.41 0 0.75 -0.34 0.75 -0.75 V 4.04 c 0 -0.41 -0.34 -0.75 -0.75 -0.75 h -1.84 V 2.13 c 0 -0.41 -0.34 -0.75 -0.75 -0.75 s -0.75 0.34 -0.75 0.75 v 1.17 h -1.84 c -0.41 0 -0.75 0.34 -0.75 0.75 v 8.27 C 35.74 12.73 36.07 13.07 36.49 13.07 z M 37.24 4.79 h 3.68 v 6.77 h -3.68 V 4.79 z" stroke-linecap="round" />
</g>
</svg>