<?xml version="1.0" encoding="UTF-8" standalone="no" ?>
<!DOCTYPE svg PUBLIC "-//W3C//DTD SVG 1.1//EN" "http://www.w3.org/Graphics/SVG/1.1/DTD/svg11.dtd">
<svg xmlns="http://www.w3.org/2000/svg" xmlns:xlink="http://www.w3.org/1999/xlink" version="1.1" width="400" height="400" viewBox="0 0 400 400" xml:space="preserve">
<desc>Created with Fabric.js 3.6.2</desc>
<defs>
</defs>
<g transform="matrix(0.06 0 0 0.06 200.18 214.61)" id="_109189744"  >
<path style="stroke: none; stroke-width: 1; stroke-dasharray: none; stroke-linecap: butt; stroke-dashoffset: 0; stroke-linejoin: miter; stroke-miterlimit: 4; fill: rgb(210,211,213); fill-rule: evenodd; opacity: 1;"  transform=" translate(-1653, -1891)" d="M 2487 1346 l -1668 0 l 0 439 l 0 401 c 0 138 93 250 206 250 l 1256 0 c 113 0 206 -113 206 -250 l 0 -401 l 0 -439 z" stroke-linecap="round" />
</g>
<g transform="matrix(0.06 0 0 0.06 199.91 169.55)" id="_109189744"  >
<path style="stroke: none; stroke-width: 1; stroke-dasharray: none; stroke-linecap: butt; stroke-dashoffset: 0; stroke-linejoin: miter; stroke-miterlimit: 4; fill: rgb(210,211,213); fill-rule: evenodd; opacity: 1;"  transform=" translate(-1648.5, -1147.5)" d="M 2479 1280 l -1661 0 l 0 -16 c 0 -137 92 -249 205 -249 l 1251 0 c 113 0 205 112 205 249 l 0 16 z" stroke-linecap="round" />
</g>
<g transform="matrix(0.06 0 0 0.06 199.21 156.97)" id="_109189744"  >
<path style="stroke: none; stroke-width: 1; stroke-dasharray: none; stroke-linecap: butt; stroke-dashoffset: 0; stroke-linejoin: miter; stroke-miterlimit: 4; fill: rgb(0,0,0); fill-rule: evenodd; opacity: 1;"  transform=" translate(-1637, -940)" d="M 1550 1015 l 174 0 l 0 -44 c 0 -58 -39 -106 -87 -106 c -48 0 -87 48 -87 106 l 0 44 z" stroke-linecap="round" />
</g>
<g transform="matrix(0.06 0 0 0.06 256.61 192.15)" id="_109189744"  >
<path style="stroke: none; stroke-width: 1; stroke-dasharray: none; stroke-linecap: butt; stroke-dashoffset: 0; stroke-linejoin: miter; stroke-miterlimit: 4; fill: rgb(210,211,213); fill-rule: evenodd; opacity: 1;"  transform=" translate(-2584, -1520.5)" d="M 2482 1696 l 0 -351 l 60 0 c 79 0 144 79 144 175 c 0 96 -65 175 -144 175 l -60 0 z" stroke-linecap="round" />
</g>
<g transform="matrix(0.06 0 0 0.06 174.42 214.61)" id="_109189744"  >
<path style="stroke: none; stroke-width: 1; stroke-dasharray: none; stroke-linecap: butt; stroke-dashoffset: 0; stroke-linejoin: miter; stroke-miterlimit: 4; fill: rgb(200,201,201); fill-rule: evenodd; opacity: 1;"  transform=" translate(-1228, -1891)" d="M 1637 2435 l 0 -1089 l -818 0 l 0 439 l 0 401 c 0 138 93 250 206 250 l 612 0 z" stroke-linecap="round" />
</g>
<g transform="matrix(0.06 0 0 0.06 174.39 169.55)" id="_109189744"  >
<path style="stroke: none; stroke-width: 1; stroke-dasharray: none; stroke-linecap: butt; stroke-dashoffset: 0; stroke-linejoin: miter; stroke-miterlimit: 4; fill: rgb(200,201,201); fill-rule: evenodd; opacity: 1;"  transform=" translate(-1227.5, -1147.5)" d="M 818 1280 l 819 0 l 0 -265 l -87 0 l -527 0 c -113 0 -205 112 -205 249 l 0 16 z" stroke-linecap="round" />
</g>
<g transform="matrix(0.06 0 0 0.06 196.58 156.97)" id="_109189744"  >
<path style="stroke: none; stroke-width: 1; stroke-dasharray: none; stroke-linecap: butt; stroke-dashoffset: 0; stroke-linejoin: miter; stroke-miterlimit: 4; fill: rgb(55,52,53); fill-rule: evenodd; opacity: 1;"  transform=" translate(-1593.5, -940)" d="M 1550 971 l 0 44 l 87 0 l 0 -150 c -48 0 -87 48 -87 106 z" stroke-linecap="round" />
</g>
<g transform="matrix(0.06 0 0 0.06 143.39 192.21)" id="_109189744"  >
<path style="stroke: none; stroke-width: 1; stroke-dasharray: none; stroke-linecap: butt; stroke-dashoffset: 0; stroke-linejoin: miter; stroke-miterlimit: 4; fill: rgb(200,201,201); fill-rule: evenodd; opacity: 1;"  transform=" translate(-716, -1521.5)" d="M 818 1697 l 0 -351 l -60 0 c -79 0 -144 79 -144 175 c 0 96 65 175 144 175 l 60 0 z" stroke-linecap="round" />
</g>
</svg>