<?xml version="1.0" encoding="UTF-8" standalone="no" ?>
<!DOCTYPE svg PUBLIC "-//W3C//DTD SVG 1.1//EN" "http://www.w3.org/Graphics/SVG/1.1/DTD/svg11.dtd">
<svg xmlns="http://www.w3.org/2000/svg" xmlns:xlink="http://www.w3.org/1999/xlink" version="1.1" width="400" height="400" viewBox="0 0 400 400" xml:space="preserve">
<desc>Created with Fabric.js 3.6.2</desc>
<defs>
</defs>
<g transform="matrix(0.39 0 0 0.39 200 200)" id="Layer_1"  >
<path style="stroke: none; stroke-width: 1; stroke-dasharray: none; stroke-linecap: butt; stroke-dashoffset: 0; stroke-linejoin: miter; stroke-miterlimit: 4; fill: rgb(0,0,0); fill-rule: nonzero; opacity: 1;"  transform=" translate(-256, -256)" d="M 437.017 74.986 C 390.659 28.629 326.733 0 255.999 0 C 185.262 0 121.335 28.629 74.983 74.986 C 28.636 121.341 0 185.268 0 256 s 28.636 134.659 74.983 181.017 C 121.335 483.369 185.262 512 255.999 512 c 70.734 0 134.66 -28.631 181.018 -74.983 C 483.363 390.659 512 326.732 512 256 S 483.363 121.341 437.017 74.986 z" stroke-linecap="round" />
</g>
<g transform="matrix(0.39 0 0 0.39 180.05 200.01)" id="Layer_1"  >
<path style="stroke: none; stroke-width: 1; stroke-dasharray: none; stroke-linecap: butt; stroke-dashoffset: 0; stroke-linejoin: miter; stroke-miterlimit: 4; fill: rgb(255,255,255); fill-rule: evenodd; opacity: 1;"  transform=" translate(-204.94, -256.02)" d="M 282.082 238.14 c -18.852 0.283 -37.705 0.283 -56.558 0.283 c -5.382 0 -10.91 -0.283 -16.165 0 c -1.126 0 -2.828 1.275 -2.828 1.984 c -0.141 10.917 -0.141 21.833 -0.141 33.173 c 15.448 0 30.615 0 46.063 0 c -0.419 2.262 -0.843 3.963 -1.555 5.522 c -6.952 20.982 -28.641 31.333 -52.026 27.506 c -28.919 -4.821 -46.771 -31.474 -41.53 -60.388 c 0.57 -4.112 1.983 -8.081 3.402 -11.769 c 9.633 -20.978 33.307 -33.735 56.702 -28.49 c 8.36 1.843 15.595 5.672 21.679 11.198 c 8.507 -8.504 16.59 -16.585 25.377 -25.372 c -0.565 -0.427 -1.555 -1.136 -2.12 -1.843 c -20.414 -17.153 -43.81 -23.535 -70.033 -19.14 c -37.85 6.096 -65.057 35.866 -70.868 70.591 c -2.691 14.745 -1.56 30.477 4.256 45.784 c 14.46 36.72 51.446 59.252 91.139 54.859 c 19.418 -2.125 36.72 -9.067 50.04 -23.386 c 19.973 -21.265 25.224 -46.781 21.972 -74.986 C 288.313 238.991 286.475 238.14 282.082 238.14 L 282.082 238.14 z" stroke-linecap="round" />
</g>
<g transform="matrix(0.39 0 0 0.39 237.16 198.26)" id="Layer_1"  >
<polygon style="stroke: none; stroke-width: 1; stroke-dasharray: none; stroke-linecap: butt; stroke-dashoffset: 0; stroke-linejoin: miter; stroke-miterlimit: 4; fill: rgb(255,255,255); fill-rule: evenodd; opacity: 1;"  points="41.18,-11.06 11.06,-11.06 11.06,-41.18 -11.06,-41.18 -11.06,-11.06 -41.18,-11.06 -41.18,11.06 -11.06,11.06 -11.06,41.18 11.06,41.18 11.06,11.06 41.18,11.06 " />
</g>
</svg>