<?xml version="1.0" encoding="UTF-8" standalone="no" ?>
<!DOCTYPE svg PUBLIC "-//W3C//DTD SVG 1.1//EN" "http://www.w3.org/Graphics/SVG/1.1/DTD/svg11.dtd">
<svg xmlns="http://www.w3.org/2000/svg" xmlns:xlink="http://www.w3.org/1999/xlink" version="1.1" width="400" height="400" viewBox="0 0 400 400" xml:space="preserve">
<desc>Created with Fabric.js 3.6.2</desc>
<defs>
</defs>
<g transform="matrix(0.39 0 0 0.39 200 200)" id="Layer_1"  >
<path style="stroke: none; stroke-width: 1; stroke-dasharray: none; stroke-linecap: butt; stroke-dashoffset: 0; stroke-linejoin: miter; stroke-miterlimit: 4; fill: rgb(0,0,0); fill-rule: nonzero; opacity: 1;"  transform=" translate(-256, -256)" d="M 437.017 74.985 C 390.665 28.629 326.732 0 256 0 S 121.338 28.629 74.986 74.985 C 28.634 121.341 0 185.268 0 256 s 28.634 134.661 74.986 181.014 C 121.338 483.368 185.268 512 256 512 s 134.665 -28.632 181.017 -74.986 C 483.368 390.661 512 326.732 512 256 S 483.368 121.341 437.017 74.985 z" stroke-linecap="round" />
</g>
<g transform="matrix(0.39 0 0 0.39 200 200.03)" id="Layer_1"  >
<path style="stroke: none; stroke-width: 1; stroke-dasharray: none; stroke-linecap: butt; stroke-dashoffset: 0; stroke-linejoin: miter; stroke-miterlimit: 4; fill: rgb(255,255,255); fill-rule: evenodd; opacity: 1;"  transform=" translate(-256, -256.07)" d="M 275.559 203.692 v -20.978 c 0 -10.064 6.664 -12.473 11.491 -12.473 c 4.675 0 29.338 0 29.338 0 v -44.795 h -40.4 c -44.933 0 -54.995 33.168 -54.995 54.716 v 23.529 h -26.087 v 31.61 V 256 h 26.365 c 0 59.393 0 130.695 0 130.695 h 52.309 c 0 0 0 -72.295 0 -130.695 h 38.693 l 1.707 -20.554 l 3.12 -31.754 H 275.559 z" stroke-linecap="round" />
</g>
</svg>