<?xml version="1.0" encoding="UTF-8" standalone="no" ?>
<!DOCTYPE svg PUBLIC "-//W3C//DTD SVG 1.1//EN" "http://www.w3.org/Graphics/SVG/1.1/DTD/svg11.dtd">
<svg xmlns="http://www.w3.org/2000/svg" xmlns:xlink="http://www.w3.org/1999/xlink" version="1.1" width="400" height="400" viewBox="0 0 400 400" xml:space="preserve">
<desc>Created with Fabric.js 3.6.2</desc>
<defs>
</defs>
<g transform="matrix(4.06 0 0 4.06 200 200)" id="Layer_1"  >
<path style="stroke: none; stroke-width: 1; stroke-dasharray: none; stroke-linecap: butt; stroke-dashoffset: 0; stroke-linejoin: miter; stroke-miterlimit: 4; fill: rgb(0,0,0); fill-rule: nonzero; opacity: 1;"  transform=" translate(-28.46, -28.64)" d="M 28.4597 4.0154 c -13.6006 0 -24.625 11.0273 -24.625 24.625 c 0 13.5996 11.0244 24.623 24.625 24.623 c 13.5996 0 24.625 -11.0234 24.625 -24.623 C 53.0847 15.0426 42.0593 4.0154 28.4597 4.0154 z M 42.6077 33.8793 c -0.6971 2.4016 -2.0137 4.6364 -3.8595 6.3326 c -1.7462 1.6122 -3.9333 2.7168 -6.2449 3.2488 c -2.5577 0.5821 -5.2626 0.5976 -7.8036 -0.084 c -2.0137 -0.5356 -3.9131 -1.4954 -5.5425 -2.7948 c -1.7272 -1.3727 -3.1511 -3.1237 -4.1442 -5.0933 c -1.5282 -3.0176 -1.9982 -6.5501 -1.3239 -9.8632 c 0.2681 -1.3298 0.7144 -2.6226 1.3256 -3.8339 c 1.7558 -3.5151 4.9224 -6.2962 8.6412 -7.5694 c 3.3 -1.1421 6.9968 -1.1165 10.2748 0.09 c 1.8207 0.6685 3.4871 1.726 4.9086 3.0414 c -0.4755 0.5165 -0.9914 0.9974 -1.4823 1.5002 c -0.936 0.9342 -1.869 1.8719 -2.8068 2.8043 c -0.9276 -0.8859 -2.0602 -1.5591 -3.2887 -1.9321 c -1.4454 -0.4373 -3.0021 -0.4975 -4.4785 -0.1823 c -1.7242 0.3694 -3.3245 1.2702 -4.5554 2.5303 c -0.9979 1.0104 -1.7576 2.252 -2.2139 3.5961 c -0.6577 1.9071 -0.653 4.0311 -0.003 5.9399 c 0.6357 1.8767 1.8737 3.5443 3.496 4.684 c 1.0146 0.7155 2.1776 1.2231 3.396 1.4662 c 1.1981 0.2425 2.4391 0.2163 3.6402 0.0114 c 1.1934 -0.2091 2.351 -0.6488 3.3584 -1.3262 c 1.6027 -1.0706 2.7328 -2.8097 3.054 -4.7114 c -2.7704 -0.0012 -5.5414 -0.0006 -8.3124 0 c -0.0035 -1.9839 -0.0005 -3.9685 -0.0012 -5.953 c 4.7847 -0.0006 9.5694 -0.0018 14.3541 0.0005 C 43.4728 28.4631 43.3679 31.2596 42.6077 33.8793 z" stroke-linecap="round" />
</g>
</svg>