<?xml version="1.0" encoding="UTF-8" standalone="no" ?>
<!DOCTYPE svg PUBLIC "-//W3C//DTD SVG 1.1//EN" "http://www.w3.org/Graphics/SVG/1.1/DTD/svg11.dtd">
<svg xmlns="http://www.w3.org/2000/svg" xmlns:xlink="http://www.w3.org/1999/xlink" version="1.1" width="400" height="400" viewBox="0 0 400 400" xml:space="preserve">
<desc>Created with Fabric.js 3.6.2</desc>
<defs>
</defs>
<g transform="matrix(2.88 0 0 2.88 199.99 199.99)" id="Layer_1-2"  >
<circle style="stroke: none; stroke-width: 1; stroke-dasharray: none; stroke-linecap: butt; stroke-dashoffset: 0; stroke-linejoin: miter; stroke-miterlimit: 4; fill: rgb(0,0,0); fill-rule: nonzero; opacity: 1;"  cx="0" cy="0" r="34.72" />
</g>
<g transform="matrix(2.88 0 0 2.88 200.02 200.06)" id="Layer_1-2"  >
<path style="stroke: none; stroke-width: 1; stroke-dasharray: none; stroke-linecap: butt; stroke-dashoffset: 0; stroke-linejoin: miter; stroke-miterlimit: 4; fill: rgb(255,255,255); fill-rule: evenodd; opacity: 1;"  transform=" translate(-34.73, -34.75)" d="M 56.79 22.85 c 0.32 -1.07 0 -1.86 -1.53 -1.86 H 50.2 A 2.18 2.18 0 0 0 48 22.42 a 42.65 42.65 0 0 1 -6.22 10.35 c -1.18 1.18 -1.72 1.55 -2.36 1.55 c -0.32 0 -0.79 -0.37 -0.79 -1.45 v -10 c 0 -1.29 -0.37 -1.86 -1.44 -1.86 h -8 A 1.21 1.21 0 0 0 28 22.15 c 0 1.22 1.82 1.5 2 4.93 v 7.46 c 0 1.63 -0.3 1.93 -0.94 1.93 c -1.72 0 -5.89 -6.31 -8.37 -13.52 c -0.48 -1.4 -1 -2 -2.26 -2 H 13.33 c -1.45 0 -1.74 0.68 -1.74 1.43 c 0 1.34 1.72 8 8 16.78 c 4.18 6 10.08 9.26 15.44 9.26 c 3.21 0 3.61 -0.72 3.61 -2 V 42 c 0 -1.44 0.31 -1.73 1.33 -1.73 c 0.75 0 2 0.37 5 3.27 c 3.43 3.43 4 5 5.92 5 H 56 c 1.45 0 2.17 -0.72 1.76 -2.15 s -2.1 -3.49 -4.27 -5.93 C 52.29 39 50.52 37.48 50 36.73 c -0.75 -1 -0.53 -1.39 0 -2.25 c 0 0 6.17 -8.68 6.81 -11.63 Z" stroke-linecap="round" />
</g>
</svg>